<svg width="320" height="240" viewBox="0 0 320 240" fill="none" xmlns="http://www.w3.org/2000/svg">
  <rect width="320" height="240" rx="36" fill="#EEF8DB"/>
  <path d="M155 61C139 46 111 44 92 62C111 67 135 70 155 61Z" fill="#4F9441"/>
  <path d="M159 71C150 54 150 38 160 26C171 39 172 55 159 71Z" fill="#376E2C"/>
  <path d="M160 73C110 73 79 108 79 145C79 187 111 212 160 212C210 212 241 187 241 145C241 108 210 73 160 73Z" fill="#91C949"/>
  <ellipse cx="132" cy="118" rx="26" ry="18" transform="rotate(-22 132 118)" fill="#C4EA88" fill-opacity="0.75"/>
  <path d="M160 73C176 57 206 55 223 76C204 80 182 81 160 73Z" fill="#7CB63D"/>
</svg>
