<svg width="320" height="240" viewBox="0 0 320 240" fill="none" xmlns="http://www.w3.org/2000/svg">
  <rect width="320" height="240" rx="36" fill="#FFE6E8"/>
  <path d="M161 56C210 56 239 92 229 145C220 193 188 212 161 212C132 212 99 194 91 145C82 92 113 56 161 56Z" fill="#E53C56"/>
  <path d="M125 64C140 44 183 42 198 64C180 71 143 71 125 64Z" fill="#52A447"/>
  <path d="M159 40L171 62H147L159 40Z" fill="#2F7A34"/>
  <circle cx="130" cy="110" r="4" fill="#FFD76C"/>
  <circle cx="160" cy="94" r="4" fill="#FFD76C"/>
  <circle cx="188" cy="114" r="4" fill="#FFD76C"/>
  <circle cx="144" cy="138" r="4" fill="#FFD76C"/>
  <circle cx="175" cy="146" r="4" fill="#FFD76C"/>
  <circle cx="124" cy="164" r="4" fill="#FFD76C"/>
  <circle cx="195" cy="168" r="4" fill="#FFD76C"/>
</svg>
