<svg width="320" height="240" viewBox="0 0 320 240" fill="none" xmlns="http://www.w3.org/2000/svg">
  <rect width="320" height="240" rx="36" fill="#FFF7E7"/>
  <rect x="76" y="106" width="168" height="84" rx="18" fill="#C88449"/>
  <rect x="86" y="114" width="148" height="62" rx="12" fill="#E0A86C"/>
  <circle cx="118" cy="104" r="26" fill="#FFB133"/>
  <circle cx="158" cy="92" r="24" fill="#8ECF52"/>
  <circle cx="196" cy="106" r="28" fill="#E54455"/>
  <ellipse cx="147" cy="86" rx="10" ry="5" fill="#4F9441"/>
  <path d="M152 78C145 68 146 55 156 47C160 59 159 70 152 78Z" fill="#2F7A34"/>
  <path d="M98 100C111 86 128 80 145 80C129 92 117 102 98 100Z" fill="#5FA047"/>
  <path d="M192 84C205 70 223 67 238 73C225 85 211 89 192 84Z" fill="#5FA047"/>
</svg>
